<?xml version="1.0" encoding="utf-8"?>
<!-- Generator: Adobe Illustrator 15.1.0, SVG Export Plug-In . SVG Version: 6.00 Build 0)  -->
<!DOCTYPE svg PUBLIC "-//W3C//DTD SVG 1.0//EN" "http://www.w3.org/TR/2001/REC-SVG-20010904/DTD/svg10.dtd">
<svg version="1.0" id="Ebene_1" xmlns="http://www.w3.org/2000/svg" xmlns:xlink="http://www.w3.org/1999/xlink" x="0px" y="0px"
	 width="1080px" height="1080px" viewBox="0 0 1080 1080" enable-background="new 0 0 1080 1080" xml:space="preserve">
<g>
	<title>Layer 1</title>
	<g id="svg_117">
		<path id="svg_118" fill="#595A54" stroke="#050606" stroke-width="2.526" d="M577.821,1058.206c0,0-17.796-9.435-28.373-37.63
			l-24.722-0.14c-7.009,34.745-28.804,37.31-28.804,37.31"/>
		<path id="svg_119" fill="#595A54" stroke="#050606" stroke-width="2.526" d="M1049.999,447.261
			c-1.729,307.388-363.061,576.979-515.939,575.123c-149.675-1.817-511.307-248.794-509.438-580.89
			C25.984,198.66,235.85,2.975,539.784,4.685C843.717,6.395,1051.365,204.427,1049.999,447.261z"/>
		<path id="svg_120" fill="#595A54" stroke="#050606" stroke-width="2.526" d="M538.024,1050.731
			c22.615,0.127,40.925,4.299,40.897,9.318c-0.028,5.023-18.385,8.988-41.001,8.86c-22.616-0.127-40.926-4.297-40.898-9.32
			C497.051,1054.57,515.407,1050.604,538.024,1050.731z"/>
	</g>
	<path id="svg_121" fill="#A5A4A4" d="M578.522,36.073c0,0,545.605,94.75,344.323,703.724c0,0,161.791-241.934,47.437-471.794
		C871.609,46.663,578.522,36.073,578.522,36.073z"/>
</g>
</svg>
